<svg xmlns="http://www.w3.org/2000/svg" version="1.1" xmlns:xlink="http://www.w3.org/1999/xlink" xmlns:svgjs="http://svgjs.dev/svgjs" width="1440" height="560" preserveAspectRatio="none" viewBox="0 0 1440 560"><g mask="url(&quot;#SvgjsMask1007&quot;)" fill="none"><path d="M140 91.3C120.8 91.3 108 116.54 108 140C108 160.2 121.44 178.62 140 178.62C164.76 178.62 194.63 160.85 194.63 140C194.63 117.19 164.11 91.3 140 91.3" stroke="rgba(3, 51, 242, 1)" stroke-width="2"></path><path d="M560 101.11C541 101.11 524.41 121.51 524.41 140C524.41 156.63 541.26 171.34 560 171.34C581.88 171.34 605.65 156.86 605.65 140C605.65 121.74 581.62 101.11 560 101.11" stroke="rgba(3, 51, 242, 1)" stroke-width="2"></path><path d="M961.22 0C988.75 37.67 935.38 76.14 942.31 140C944.77 162.65 960.89 173.03 980 173.03C999.87 173.03 1017.31 163.31 1020.27 140C1028.31 76.8 974.84 38.13 1002 0C1024.7 -31.87 1061 0 1120 0C1190 0 1190 0 1260 0C1330 0 1330 0 1400 0C1470 0 1505 -35 1540 0C1575 35 1540 70 1540 140C1540 210 1540 210 1540 280C1540 350 1540 350 1540 420C1540 490 1567.5 517.5 1540 560C1522.21 587.5 1494.28 563.69 1449.41 560C1424.28 557.93 1424.38 548.49 1400 548.49C1383.52 548.49 1384.6 558.61 1367.69 560C1314.6 564.36 1313.85 560 1260 560C1190 560 1190 560 1120 560C1050 560 1050 560 980 560C910 560 910 560 840 560C770 560 770 560 700 560C630 560 630 560 560 560C490 560 490 560 420 560C350 560 350 560 280 560C210 560 210 560 140 560C72.86 560 64.33 570.66 5.71 560C-5.67 557.93 0.53 547.53 0 534.55C-2.33 477.53 0 477.27 0 420C0 350 0 350 0 280C0 210 0 210 0 140C0 70 -35 35 0 0C35 -35 70 0 140 0C210 0 210 0 280 0C350 0 350 0 420 0C490 0 490 0 560 0C630 0 630 0 700 0C770 0 770 0 840 0C900.61 0 937.6 -32.33 961.22 0" stroke="rgba(3, 51, 242, 1)" stroke-width="2"></path><path d="M420 231.94C400.32 231.94 382.12 256.5 382.12 280C382.12 301.99 400.39 322.93 420 322.93C440.79 322.93 462.93 302.07 462.93 280C462.93 256.57 440.72 231.94 420 231.94" stroke="rgba(3, 51, 242, 1)" stroke-width="2"></path><path d="M1120 253.75C1104.42 256.01 1099 265.14 1099 280C1099 307.23 1096.59 337.43 1120 337.93C1177.09 339.14 1190.83 311.64 1260 283.41C1261.81 282.67 1261.97 281.93 1261.97 280C1261.97 268.56 1270.17 258.55 1260 256.67C1199.18 245.43 1184.92 244.34 1120 253.75" stroke="rgba(3, 51, 242, 1)" stroke-width="2"></path><path d="M280 397.3C262.97 397.3 244.26 407.13 244.26 420C244.26 434.64 263.37 452.31 280 452.31C294.37 452.31 306.25 435 306.25 420C306.25 407.5 293.96 397.3 280 397.3" stroke="rgba(3, 51, 242, 1)" stroke-width="2"></path><path d="M560 403.39C548.8 405.6 543.39 411.05 543.39 420C543.39 430.75 548.29 435.23 560 442.79C626.6 485.79 626.76 511.65 700 521.11C766.76 529.73 773.52 507.76 840 478.95C890.19 457.2 933.33 445.48 933.33 420C933.33 396.69 888.85 387.84 840 381.38C772.19 372.41 769.87 383.66 700 389.15C629.87 394.66 627.1 390.17 560 403.39" stroke="rgba(3, 51, 242, 1)" stroke-width="2"></path><path d="M0 4.67C15.11 4.67 58 74.15 58 140C58 191.32 15.57 239.02 0 239.02C-13.43 239.02 0 189.51 0 140C0 72.33 -13.89 4.67 0 4.67" stroke="rgba(3, 51, 242, 1)" stroke-width="2"></path><path d="M140 15.22C82.74 15.22 23.33 3.82 23.33 0C23.33 -3.79 81.66 0 140 0C157.5 0 175 -3.64 175 0C175 3.97 158.57 15.22 140 15.22" stroke="rgba(3, 51, 242, 1)" stroke-width="2"></path><path d="M280 140C311.82 70 296.87 46.77 343.64 0C366.87 -23.23 381.82 0 420 0C490 0 490 0 560 0C630 0 630 0 700 0C770 0 770 0 840 0C879.27 0 908.29 -24.98 918.54 0C937.01 45.02 880.13 80.19 897.44 140C910.86 186.37 938.94 175.93 980 212.36C1017.84 245.93 1055.25 242.5 1055.25 280C1055.25 326.48 1028.65 371.06 980 380.33C921.02 391.57 912.82 334.16 840 321.03C772.82 308.91 769.89 324.08 700 329.83C629.89 335.6 620.28 359.85 560 344.07C525.08 334.93 509.6 311.25 509.6 280C509.6 251 530.84 247.29 560 223.58C616.91 177.29 681.74 184.96 681.74 140C681.74 91.32 617.65 36.3 560 36.3C509.32 36.3 514.12 89.76 465.08 140C444.12 161.46 439.86 157.31 420 179.7C377.79 227.31 381.48 230.69 340.94 280C311.48 315.84 315.56 320.92 280 350C229.98 390.92 169.79 380.33 169.79 420C169.79 465.14 228.73 519.62 280 519.62C324.3 519.62 317.32 466.74 360.94 420C387.32 391.73 389.97 369.6 420 369.6C451.53 369.6 456.95 390.06 484.07 420C526.95 467.35 517.42 476.73 560 524.19C580.23 546.73 609.68 550.11 609.68 560C609.68 568.02 584.84 560 560 560C490 560 490 560 420 560C350 560 350 560 280 560C210 560 210 560 140 560C108.57 560 85.47 581.66 77.14 560C58.55 511.66 90.91 489.38 86.15 420C81.3 349.38 41.54 335.11 57.93 280C68.46 244.59 101.29 263.37 140 238.97C212.33 193.37 210 189.49 280 140C280 140 280 140 280 140" stroke="rgba(3, 51, 242, 1)" stroke-width="2"></path><path d="M1068.22 140C1046.39 76.09 1034.54 47.22 1052 0C1060.43 -22.78 1086 0 1120 0C1190 0 1190 0 1260 0C1301.18 0 1342.35 -10.86 1342.35 0C1342.35 12.48 1292.7 14.41 1260 46.67C1221.74 84.41 1237.25 99.92 1200.43 140C1167.25 176.12 1156.99 199.06 1120 199.06C1090.88 199.06 1080.39 175.62 1068.22 140" stroke="rgba(3, 51, 242, 1)" stroke-width="2"></path><path d="M1487.5 140C1501.38 92.03 1428.66 42.38 1444.55 0C1454.91 -27.62 1520.65 -28.38 1540 0C1568.38 41.62 1540 70 1540 140C1540 149.13 1542.67 149.59 1540 158.26C1521.13 219.59 1496.92 221.66 1496.92 280C1496.92 315.86 1528.8 310.28 1540 346.67C1550.34 380.28 1540 383.34 1540 420C1540 462.78 1566.54 490.29 1540 505.56C1496.54 530.56 1469.5 495.72 1400 500.55C1329.5 505.44 1323.33 502.18 1260 525C1240.83 531.91 1254.05 555.24 1235 560C1184.05 572.74 1177.5 560 1120 560C1085.74 560 1051.49 578.44 1051.49 560C1051.49 526.51 1080.6 503.19 1120 456.13C1139.2 433.19 1143.02 436.02 1168.7 420C1213.02 392.34 1223.99 404.15 1260 368.78C1295.27 334.15 1283.31 322.9 1311.27 280C1353.31 215.51 1344.05 198.44 1400 154C1432.17 128.44 1479.1 169.03 1487.5 140" stroke="rgba(3, 51, 242, 1)" stroke-width="2"></path><path d="M0 121.33C2.08 121.33 8 130.92 8 140C8 147.08 2.15 153.66 0 153.66C-1.85 153.66 0 146.83 0 140C0 130.66 -1.92 121.33 0 121.33" stroke="rgba(3, 51, 242, 1)" stroke-width="2"></path><path d="M802.31 140C772.73 71.82 739.11 43.82 750.91 0C757.96 -26.18 795.45 0 840 0C857.92 0 874.58 -14.12 875.85 0C880.86 55.88 864.76 70.1 852.56 140C846.84 172.77 851.78 205.33 840 205.33C826.65 205.33 817.27 174.48 802.31 140" stroke="rgba(3, 51, 242, 1)" stroke-width="2"></path><path d="M1116.16 140C1107.52 70.68 1100.3 62.06 1102 0C1102.22 -7.94 1111 0 1120 0C1146.25 0 1171.72 -18.37 1172.5 0C1174.7 51.63 1150.96 71.26 1125.96 140C1124.71 143.45 1122.74 144.38 1120 144.38C1117.84 144.38 1116.52 142.87 1116.16 140" stroke="rgba(3, 51, 242, 1)" stroke-width="2"></path><path d="M196 280C196 262.18 245.84 234.59 280 234.59C297.72 234.59 299.76 258.82 299.76 280C299.76 292.87 293.33 302.7 280 302.7C241.45 302.7 196 296.24 196 280" stroke="rgba(3, 51, 242, 1)" stroke-width="2"></path><path d="M556.27 280C556.27 277.85 557.31 275.82 560 275.82C582.51 275.82 606.67 277.77 606.67 280C606.67 282.23 582.33 284.75 560 284.75C557.13 284.75 556.27 282.32 556.27 280" stroke="rgba(3, 51, 242, 1)" stroke-width="2"></path><path d="M883.08 280C883.08 262.82 934.76 251.69 980 251.69C998.97 251.69 1011.5 264.3 1011.5 280C1011.5 299.46 1001.32 322 980 322C937.11 322 883.08 297.97 883.08 280" stroke="rgba(3, 51, 242, 1)" stroke-width="2"></path><path d="M1360.56 280C1374.49 249.03 1379.69 224 1400 224C1420.95 224 1424.8 249.88 1443.08 280C1484.3 347.88 1531.14 371.37 1519 420C1509.6 457.67 1458.79 452.6 1400 452.6C1355.22 452.6 1319.5 453.49 1311.85 420C1299.78 367.19 1330.41 347.03 1360.56 280" stroke="rgba(3, 51, 242, 1)" stroke-width="2"></path><path d="M415.63 420C415.63 417.57 417.78 416.27 420 416.27C422.34 416.27 424.75 417.51 424.75 420C424.75 425.21 422.29 431.67 420 431.67C417.73 431.67 415.63 425.27 415.63 420" stroke="rgba(3, 51, 242, 1)" stroke-width="2"></path></g><defs><mask id="SvgjsMask1007"><rect width="1440" height="560" fill="#ffffff"></rect></mask></defs></svg>